<svg viewBox="0 0 768 742" fill="none" xmlns="http://www.w3.org/2000/svg">
<path d="M461.328 251C444.172 260.238 430.989 278.372 434.599 298.718C437.091 312.765 444.565 318.85 458.244 318.85" stroke="black" stroke-width="2" stroke-linecap="round" stroke-linejoin="round"/>
<path d="M461.328 281.841C462.338 288.911 463.439 295.969 464.069 303.087C464.385 306.651 463.736 316.757 465.611 313.71C469.971 306.626 464.084 293.351 467.753 285.096C471.164 277.42 478.646 275 484.972 281.327C491.993 288.347 489.085 303.608 489.085 312.682" stroke="black" stroke-width="2" stroke-linecap="round" stroke-linejoin="round"/>
<path d="M501.421 286.467C498.753 293.971 496.919 302.556 501.764 309.769C506.014 316.097 514.247 311.34 516.499 305.828C521.702 293.09 511.951 275.603 498.337 283.383" stroke="black" stroke-width="2" stroke-linecap="round" stroke-linejoin="round"/>
<path d="M530.72 274.131C529.479 283.704 530.72 292.98 530.72 302.573C530.72 305.144 530.212 319.338 532.262 311.14" stroke="black" stroke-width="2" stroke-linecap="round" stroke-linejoin="round"/>
<path d="M523.01 291.093C531.781 288.963 540.252 287.215 549.224 286.467" stroke="black" stroke-width="2" stroke-linecap="round" stroke-linejoin="round"/>
<path d="M570.813 291.093C571.724 293.936 575.244 314.836 578.18 315.937C579.497 316.431 578.008 313.123 577.752 311.74C577.004 307.703 576.771 303.585 577.152 299.489C577.585 294.84 579.713 285.268 586.062 285.268C591.679 285.268 590.92 301.742 591.202 304.972C591.368 306.873 592.401 321.049 592.401 311.997C592.401 303.999 590.853 292.378 595.657 285.439C600.067 279.069 605.548 286.055 606.879 290.665C609.456 299.585 609.449 308.356 607.822 317.308" stroke="black" stroke-width="2" stroke-linecap="round" stroke-linejoin="round"/>
<path d="M620.158 289.551C619.42 296.929 617.928 305.948 621.101 313.024C624.366 320.309 629.684 314.498 631.638 309.94C634.617 302.989 636.792 293.922 634.808 286.381C634.627 285.695 636.32 297.458 637.121 300.431C641.388 316.282 643.946 333.943 629.068 345.579C617.972 354.256 608.586 335.43 617.074 331.186" stroke="black" stroke-width="2" stroke-linecap="round" stroke-linejoin="round"/>
<path d="M680.298 303.43C680.298 298.12 682.247 288.091 676.186 285.182C667.319 280.926 662.892 293.398 661.279 299.66C659.536 306.433 658.773 316.346 664.449 321.506C673.337 329.585 678.18 319.48 681.84 312.682" stroke="black" stroke-width="2" stroke-linecap="round" stroke-linejoin="round"/>
<path d="M703.429 300.346C696.397 288.626 690.889 298.751 688.351 308.056C686.157 316.101 691.893 331.984 698.631 318.508C700.422 314.925 703.429 299.431 703.429 300.774C703.429 309.162 707.222 316.687 708.055 325.018" stroke="black" stroke-width="2" stroke-linecap="round" stroke-linejoin="round"/>
<path d="M720.391 283.383C720.518 295.742 721.208 308.06 721.933 320.392" stroke="black" stroke-width="2" stroke-linecap="round" stroke-linejoin="round"/>
<path d="M711.139 300.346C718.347 299.659 725.507 299.205 732.727 298.803" stroke="black" stroke-width="2" stroke-linecap="round" stroke-linejoin="round"/>
<path d="M734.269 271.047C748.916 272.644 757.41 282.169 760.655 296.233C764.143 311.347 754.187 323.627 745.064 334.27" stroke="black" stroke-width="2" stroke-linecap="round" stroke-linejoin="round"/>
<path d="M593.943 357.401C590.386 380.526 587.375 407.54 567.729 423.366C557.765 431.392 551.314 437.272 538.43 440.671C529.392 443.057 520.273 444.033 511.358 446.84C510.423 447.134 501.38 449.919 501.25 447.696C501.15 446.004 508.641 440.283 509.816 439.129C514.7 434.337 520.15 430.19 524.551 424.908C529.492 418.98 522.717 426.948 521.125 428.335C517.125 431.819 491.029 445.736 496.281 453.008C501.945 460.851 515.575 468.948 524.551 471.512" stroke="black" stroke-width="2" stroke-linecap="round" stroke-linejoin="round"/>
</svg>
